<?xml version="1.0" standalone="no"?>
<!DOCTYPE svg PUBLIC "-//W3C//DTD SVG 20010904//EN"
 "http://www.w3.org/TR/2001/REC-SVG-20010904/DTD/svg10.dtd">
<svg version="1.0" xmlns="http://www.w3.org/2000/svg"
 width="512.000000pt" height="512.000000pt" viewBox="0 0 512.000000 512.000000"
 preserveAspectRatio="xMidYMid meet">

<g transform="translate(0.000000,512.000000) scale(0.100000,-0.100000)"
fill="#000000" stroke="none">
<path d="M2535 4690 c-16 -25 -74 -119 -130 -210 -343 -558 -704 -1141 -710
-1148 -1 -1 -67 69 -146 157 -78 88 -146 158 -150 155 -6 -3 -144 -214 -454
-694 -306 -472 -641 -989 -778 -1200 l-167 -255 0 -747 0 -748 24 0 c25 0 74
50 471 479 99 107 229 246 288 310 l108 116 -7 422 -7 423 177 0 176 0 0 -237
1 -238 109 115 110 115 0 253 0 252 170 0 170 0 0 -131 0 -130 101 -97 c56
-53 107 -98 113 -100 10 -2 12 85 12 385 l-1 388 170 0 170 0 3 -555 2 -555
67 -67 c37 -38 72 -68 78 -68 6 0 25 15 43 33 l32 33 0 787 0 787 170 0 170 0
2 -600 3 -601 235 253 c129 139 336 361 460 493 215 230 526 568 562 611 17
19 15 24 -57 134 -70 107 -366 568 -509 793 l-62 97 -130 -164 c-71 -91 -133
-164 -139 -162 -7 2 -506 804 -713 1146 -7 11 -15 5 -37 -30z m487 -1096 c229
-380 422 -702 429 -715 12 -23 -54 39 -487 456 -108 105 -199 186 -201 180 -2
-5 -109 -170 -238 -365 -152 -229 -235 -347 -235 -332 0 13 16 165 35 339 19
174 33 318 31 320 -2 2 -23 -18 -47 -45 -144 -162 -793 -862 -799 -862 -4 0
-31 70 -60 156 l-53 155 -21 -19 c-201 -179 -533 -471 -549 -482 l-22 -15 20
30 c10 17 90 138 177 270 86 132 214 329 284 438 70 109 131 200 137 204 10 6
21 -5 203 -201 l101 -109 45 74 c25 41 174 281 330 534 157 253 324 524 373
603 l87 143 23 -33 c12 -18 209 -344 437 -724z m642 -229 c95 -149 138 -218
303 -480 34 -54 61 -101 59 -102 -3 -3 -205 146 -431 319 -33 25 -82 54 -110
63 -27 10 -55 23 -61 29 -11 12 -54 125 -54 144 0 7 37 60 82 118 76 98 83
105 96 88 7 -11 59 -91 116 -179z"/>
<path d="M4908 3302 c-47 -15 -67 -35 -28 -27 25 5 26 -7 2 -28 -19 -18 -107
-13 -95 6 7 12 -27 4 -80 -18 -46 -19 -48 -29 -4 -20 17 4 29 4 26 1 -4 -4 -3
-24 2 -44 7 -34 6 -35 -7 -18 -10 14 -17 17 -25 9 -8 -8 -8 -13 0 -17 6 -4 11
-12 11 -19 0 -6 -7 -2 -15 9 -13 16 -16 17 -25 4 -5 -8 -10 -10 -10 -4 0 5 5
15 11 21 9 9 7 11 -8 7 -16 -4 -22 0 -27 20 -3 14 -12 26 -18 26 -18 0 -332
-91 -340 -99 -4 -3 28 -42 72 -85 44 -43 80 -83 80 -87 0 -5 -33 -44 -73 -87
-40 -42 -185 -196 -322 -342 -137 -146 -283 -301 -324 -345 -42 -44 -139 -147
-216 -230 -77 -82 -210 -224 -295 -315 -85 -91 -274 -293 -419 -448 -145 -156
-267 -282 -271 -280 -4 2 -180 166 -391 366 l-384 363 -60 -63 c-33 -35 -238
-254 -455 -488 -217 -233 -529 -567 -692 -742 -164 -175 -298 -320 -298 -323
0 -3 80 -5 179 -5 l178 0 245 262 c134 145 307 331 384 414 76 83 227 246 334
362 l195 210 27 -21 c14 -12 189 -175 387 -362 199 -187 365 -340 370 -340 5
0 85 81 178 180 92 100 387 415 654 700 748 801 789 844 1033 1108 l229 247
96 -92 96 -92 8 39 c77 390 136 699 134 700 -1 1 -23 -5 -49 -13z m-125 -165
c-3 -5 -9 -4 -13 3 -6 9 -9 9 -13 -1 -3 -8 -6 -2 -6 13 -1 27 0 27 18 11 11
-9 17 -21 14 -26z m-288 -43 c14 -14 29 -23 32 -20 4 3 -2 13 -13 21 -22 16
-12 20 16 5 14 -7 23 -6 33 5 13 12 15 12 20 -5 3 -11 1 -20 -4 -20 -13 0 -11
-29 3 -44 7 -7 20 -11 30 -8 13 3 18 -1 18 -14 0 -16 -7 -19 -48 -17 -78 2
-75 1 -67 30 5 21 4 24 -7 16 -18 -14 -52 -13 -38 1 15 15 12 26 -9 26 -17 0
-18 3 -8 25 7 14 13 25 14 25 1 0 14 -12 28 -26z m115 -39 c0 -9 -6 -12 -16
-8 -13 5 -13 7 -2 14 17 11 18 11 18 -6z m-165 -15 c-3 -5 -14 -10 -23 -9 -14
0 -13 2 3 9 27 11 27 11 20 0z m165 -74 c-26 -13 -44 -11 -35 5 4 5 18 9 33 9
l27 0 -25 -14z"/>
<path d="M4540 3030 c0 -5 5 -10 10 -10 6 0 10 5 10 10 0 6 -4 10 -10 10 -5 0
-10 -4 -10 -10z"/>
<path d="M4680 3190 c0 -5 5 -10 11 -10 5 0 7 5 4 10 -3 6 -8 10 -11 10 -2 0
-4 -4 -4 -10z"/>
<path d="M4410 2336 c-121 -130 -1229 -1316 -1314 -1406 -39 -41 -181 -193
-315 -337 l-243 -263 -67 63 c-37 34 -202 188 -365 342 -164 154 -311 290
-326 302 l-28 23 -179 -193 c-147 -158 -471 -507 -752 -809 l-53 -58 2176 0
2176 0 0 748 0 748 -243 369 c-133 204 -271 414 -306 468 -35 53 -66 97 -70
96 -3 -1 -44 -42 -91 -93z m-193 -922 c214 -44 357 -182 357 -344 0 -203 -211
-354 -494 -353 -178 0 -305 46 -406 147 -125 125 -128 276 -8 405 120 130 342
188 551 145z m-322 -764 c95 -24 261 -27 353 -5 35 8 98 32 140 52 42 20 82
39 87 42 6 2 3 -4 -5 -14 -25 -30 -81 -61 -165 -90 -66 -24 -101 -30 -197 -33
-104 -4 -128 -1 -210 22 -91 26 -183 73 -216 109 -9 11 16 1 59 -22 42 -23
111 -50 154 -61z m585 -105 c-40 -42 -143 -94 -231 -115 -161 -38 -334 -20
-470 51 -43 22 -85 49 -95 61 -13 14 -4 11 31 -11 28 -17 86 -44 130 -58 106
-35 288 -43 398 -19 72 16 191 67 232 100 30 23 32 19 5 -9z"/>
<path d="M4040 1301 c0 -24 -5 -29 -31 -35 -83 -16 -118 -118 -61 -176 19 -18
55 -36 103 -50 86 -26 99 -34 99 -66 0 -28 -26 -44 -74 -44 -35 0 -76 27 -76
50 0 12 -70 13 -88 1 -31 -19 40 -103 98 -116 22 -5 30 -13 32 -33 3 -24 7
-27 38 -27 30 0 35 4 38 26 2 21 11 29 42 38 61 18 100 80 86 137 -11 41 -54
73 -134 97 -83 25 -111 51 -89 80 6 9 26 19 43 23 24 4 37 0 61 -20 35 -30
113 -38 113 -12 0 24 -49 74 -85 88 -29 10 -35 17 -35 40 0 26 -3 28 -40 28
-37 0 -40 -2 -40 -29z"/>
</g>
</svg>
